<mxfile host="app.diagrams.net" modified="2024-05-15T11:19:39.914Z" agent="Mozilla/5.0 (Windows NT 10.0; Win64; x64) AppleWebKit/537.36 (KHTML, like Gecko) Chrome/124.0.0.0 Safari/537.36" etag="gHK7qGjkeaArExBb4BCV" version="24.3.1" type="device">
  <diagram name="Page-1" id="XMlhJPR_ERya4U9ECW7Q">
    <mxGraphModel dx="2314" dy="1132" grid="1" gridSize="10" guides="1" tooltips="1" connect="1" arrows="1" fold="1" page="1" pageScale="1" pageWidth="827" pageHeight="1169" math="0" shadow="0">
      <root>
        <mxCell id="0" />
        <mxCell id="1" parent="0" />
        <mxCell id="k7aMi8PPihudtV_nzqcB-1" value="Transaction&amp;nbsp;&lt;div&gt;History&lt;/div&gt;" style="ellipse;whiteSpace=wrap;html=1;" vertex="1" parent="1">
          <mxGeometry x="300" y="100" width="140" height="50" as="geometry" />
        </mxCell>
        <mxCell id="k7aMi8PPihudtV_nzqcB-17" style="edgeStyle=orthogonalEdgeStyle;rounded=0;orthogonalLoop=1;jettySize=auto;html=1;entryX=0;entryY=0.5;entryDx=0;entryDy=0;exitX=0.789;exitY=0.34;exitDx=0;exitDy=0;exitPerimeter=0;" edge="1" parent="1" source="k7aMi8PPihudtV_nzqcB-3" target="k7aMi8PPihudtV_nzqcB-1">
          <mxGeometry relative="1" as="geometry" />
        </mxCell>
        <mxCell id="k7aMi8PPihudtV_nzqcB-18" style="edgeStyle=orthogonalEdgeStyle;rounded=0;orthogonalLoop=1;jettySize=auto;html=1;exitX=0.75;exitY=0.1;exitDx=0;exitDy=0;exitPerimeter=0;entryX=0;entryY=0.5;entryDx=0;entryDy=0;" edge="1" parent="1" source="k7aMi8PPihudtV_nzqcB-3" target="k7aMi8PPihudtV_nzqcB-6">
          <mxGeometry relative="1" as="geometry" />
        </mxCell>
        <mxCell id="k7aMi8PPihudtV_nzqcB-19" style="edgeStyle=orthogonalEdgeStyle;rounded=0;orthogonalLoop=1;jettySize=auto;html=1;exitX=0.5;exitY=0;exitDx=0;exitDy=0;exitPerimeter=0;entryX=0;entryY=0.5;entryDx=0;entryDy=0;" edge="1" parent="1" source="k7aMi8PPihudtV_nzqcB-3" target="k7aMi8PPihudtV_nzqcB-7">
          <mxGeometry relative="1" as="geometry" />
        </mxCell>
        <mxCell id="k7aMi8PPihudtV_nzqcB-20" style="edgeStyle=orthogonalEdgeStyle;rounded=0;orthogonalLoop=1;jettySize=auto;html=1;exitX=0.5;exitY=0.5;exitDx=0;exitDy=0;exitPerimeter=0;entryX=0;entryY=0.5;entryDx=0;entryDy=0;" edge="1" parent="1" source="k7aMi8PPihudtV_nzqcB-3" target="k7aMi8PPihudtV_nzqcB-8">
          <mxGeometry relative="1" as="geometry" />
        </mxCell>
        <mxCell id="k7aMi8PPihudtV_nzqcB-21" style="edgeStyle=orthogonalEdgeStyle;rounded=0;orthogonalLoop=1;jettySize=auto;html=1;exitX=1;exitY=1;exitDx=0;exitDy=0;exitPerimeter=0;entryX=0;entryY=0.5;entryDx=0;entryDy=0;" edge="1" parent="1" source="k7aMi8PPihudtV_nzqcB-3" target="k7aMi8PPihudtV_nzqcB-9">
          <mxGeometry relative="1" as="geometry" />
        </mxCell>
        <mxCell id="k7aMi8PPihudtV_nzqcB-22" style="edgeStyle=orthogonalEdgeStyle;rounded=0;orthogonalLoop=1;jettySize=auto;html=1;exitX=0;exitY=1;exitDx=0;exitDy=0;exitPerimeter=0;entryX=0;entryY=0.5;entryDx=0;entryDy=0;" edge="1" parent="1" source="k7aMi8PPihudtV_nzqcB-3" target="k7aMi8PPihudtV_nzqcB-11">
          <mxGeometry relative="1" as="geometry" />
        </mxCell>
        <mxCell id="k7aMi8PPihudtV_nzqcB-3" value="Actor" style="shape=umlActor;verticalLabelPosition=bottom;verticalAlign=top;html=1;" vertex="1" parent="1">
          <mxGeometry x="80" y="330" width="60" height="100" as="geometry" />
        </mxCell>
        <mxCell id="k7aMi8PPihudtV_nzqcB-6" value="Wallet Management&amp;nbsp;" style="ellipse;whiteSpace=wrap;html=1;" vertex="1" parent="1">
          <mxGeometry x="295" y="170" width="145" height="50" as="geometry" />
        </mxCell>
        <mxCell id="k7aMi8PPihudtV_nzqcB-7" value="Main Menu&amp;nbsp;" style="ellipse;whiteSpace=wrap;html=1;" vertex="1" parent="1">
          <mxGeometry x="300" y="240" width="140" height="50" as="geometry" />
        </mxCell>
        <mxCell id="k7aMi8PPihudtV_nzqcB-8" value="User Management" style="ellipse;whiteSpace=wrap;html=1;" vertex="1" parent="1">
          <mxGeometry x="295" y="310" width="145" height="50" as="geometry" />
        </mxCell>
        <mxCell id="k7aMi8PPihudtV_nzqcB-9" value="Login" style="ellipse;whiteSpace=wrap;html=1;" vertex="1" parent="1">
          <mxGeometry x="292.5" y="390" width="147.5" height="40" as="geometry" />
        </mxCell>
        <mxCell id="k7aMi8PPihudtV_nzqcB-10" value="Navigation Controller" style="ellipse;whiteSpace=wrap;html=1;" vertex="1" parent="1">
          <mxGeometry x="295" y="460" width="147.5" height="40" as="geometry" />
        </mxCell>
        <mxCell id="k7aMi8PPihudtV_nzqcB-11" value="Stock Market" style="ellipse;whiteSpace=wrap;html=1;" vertex="1" parent="1">
          <mxGeometry x="295" y="520" width="147.5" height="40" as="geometry" />
        </mxCell>
        <mxCell id="k7aMi8PPihudtV_nzqcB-12" value="Stock Management" style="ellipse;whiteSpace=wrap;html=1;" vertex="1" parent="1">
          <mxGeometry x="296.25" y="580" width="147.5" height="40" as="geometry" />
        </mxCell>
        <mxCell id="k7aMi8PPihudtV_nzqcB-23" style="edgeStyle=orthogonalEdgeStyle;rounded=0;orthogonalLoop=1;jettySize=auto;html=1;exitX=0.5;exitY=0;exitDx=0;exitDy=0;exitPerimeter=0;entryX=1;entryY=0.5;entryDx=0;entryDy=0;" edge="1" parent="1" source="k7aMi8PPihudtV_nzqcB-13" target="k7aMi8PPihudtV_nzqcB-1">
          <mxGeometry relative="1" as="geometry" />
        </mxCell>
        <mxCell id="k7aMi8PPihudtV_nzqcB-24" style="edgeStyle=orthogonalEdgeStyle;rounded=0;orthogonalLoop=1;jettySize=auto;html=1;exitX=0.25;exitY=0.1;exitDx=0;exitDy=0;exitPerimeter=0;entryX=1;entryY=0.5;entryDx=0;entryDy=0;" edge="1" parent="1" source="k7aMi8PPihudtV_nzqcB-13" target="k7aMi8PPihudtV_nzqcB-6">
          <mxGeometry relative="1" as="geometry" />
        </mxCell>
        <mxCell id="k7aMi8PPihudtV_nzqcB-25" style="edgeStyle=orthogonalEdgeStyle;rounded=0;orthogonalLoop=1;jettySize=auto;html=1;exitX=0;exitY=0.3333333333333333;exitDx=0;exitDy=0;exitPerimeter=0;entryX=1;entryY=0.5;entryDx=0;entryDy=0;" edge="1" parent="1" source="k7aMi8PPihudtV_nzqcB-13" target="k7aMi8PPihudtV_nzqcB-7">
          <mxGeometry relative="1" as="geometry" />
        </mxCell>
        <mxCell id="k7aMi8PPihudtV_nzqcB-26" style="edgeStyle=orthogonalEdgeStyle;rounded=0;orthogonalLoop=1;jettySize=auto;html=1;exitX=0.5;exitY=0.5;exitDx=0;exitDy=0;exitPerimeter=0;entryX=1;entryY=0.5;entryDx=0;entryDy=0;" edge="1" parent="1" source="k7aMi8PPihudtV_nzqcB-13" target="k7aMi8PPihudtV_nzqcB-8">
          <mxGeometry relative="1" as="geometry" />
        </mxCell>
        <mxCell id="k7aMi8PPihudtV_nzqcB-27" style="edgeStyle=orthogonalEdgeStyle;rounded=0;orthogonalLoop=1;jettySize=auto;html=1;exitX=0;exitY=1;exitDx=0;exitDy=0;exitPerimeter=0;entryX=1;entryY=0.5;entryDx=0;entryDy=0;" edge="1" parent="1" source="k7aMi8PPihudtV_nzqcB-13" target="k7aMi8PPihudtV_nzqcB-9">
          <mxGeometry relative="1" as="geometry" />
        </mxCell>
        <mxCell id="k7aMi8PPihudtV_nzqcB-28" style="edgeStyle=orthogonalEdgeStyle;rounded=0;orthogonalLoop=1;jettySize=auto;html=1;exitX=1;exitY=1;exitDx=0;exitDy=0;exitPerimeter=0;entryX=1;entryY=0.5;entryDx=0;entryDy=0;" edge="1" parent="1" source="k7aMi8PPihudtV_nzqcB-13" target="k7aMi8PPihudtV_nzqcB-10">
          <mxGeometry relative="1" as="geometry" />
        </mxCell>
        <mxCell id="k7aMi8PPihudtV_nzqcB-29" style="edgeStyle=orthogonalEdgeStyle;rounded=0;orthogonalLoop=1;jettySize=auto;html=1;exitX=1;exitY=0.3333333333333333;exitDx=0;exitDy=0;exitPerimeter=0;entryX=1;entryY=0.5;entryDx=0;entryDy=0;" edge="1" parent="1" source="k7aMi8PPihudtV_nzqcB-13" target="k7aMi8PPihudtV_nzqcB-11">
          <mxGeometry relative="1" as="geometry" />
        </mxCell>
        <mxCell id="k7aMi8PPihudtV_nzqcB-30" style="edgeStyle=orthogonalEdgeStyle;rounded=0;orthogonalLoop=1;jettySize=auto;html=1;exitX=1;exitY=1;exitDx=0;exitDy=0;exitPerimeter=0;entryX=1;entryY=0.5;entryDx=0;entryDy=0;" edge="1" parent="1" source="k7aMi8PPihudtV_nzqcB-13" target="k7aMi8PPihudtV_nzqcB-12">
          <mxGeometry relative="1" as="geometry" />
        </mxCell>
        <mxCell id="k7aMi8PPihudtV_nzqcB-13" value="Actor" style="shape=umlActor;verticalLabelPosition=bottom;verticalAlign=top;html=1;" vertex="1" parent="1">
          <mxGeometry x="580" y="340" width="80" height="90" as="geometry" />
        </mxCell>
        <mxCell id="k7aMi8PPihudtV_nzqcB-14" value="User" style="text;html=1;align=center;verticalAlign=middle;whiteSpace=wrap;rounded=0;" vertex="1" parent="1">
          <mxGeometry x="50" y="280" width="110" height="40" as="geometry" />
        </mxCell>
        <mxCell id="k7aMi8PPihudtV_nzqcB-15" value="Broker" style="text;html=1;align=center;verticalAlign=middle;resizable=0;points=[];autosize=1;strokeColor=none;fillColor=none;" vertex="1" parent="1">
          <mxGeometry x="590" y="300" width="60" height="30" as="geometry" />
        </mxCell>
      </root>
    </mxGraphModel>
  </diagram>
</mxfile>
